P1
# CREATOR: GIMP PNM Filter Version 1.1
8 12
1111111111111111111111111100011111110011110000111001001110010011110000
11111111111111111111111111